<svg preserveAspectRatio="none" width="100%" height="100%" overflow="visible" style="display: block;" viewBox="0 0 26.7826 22" fill="none" xmlns="http://www.w3.org/2000/svg">
<g id="Camera Vector">
<path d="M13.3913 7.84198C15.7577 7.84221 17.676 9.68353 17.676 11.9553C17.676 14.2272 15.7578 16.0693 13.3913 16.0696C11.0247 16.0696 9.10564 14.2273 9.10564 11.9553C9.1057 9.68339 11.0247 7.84198 13.3913 7.84198Z" fill="var(--fill-0, #00C950)"/>
<path fill-rule="evenodd" clip-rule="evenodd" d="M17.4089 0L19.859 2.55122H24.1045C25.5774 2.55135 26.7826 3.69876 26.7826 5.10155V19.4497C26.7825 20.8524 25.5774 21.9999 24.1045 22H2.67807C1.20517 21.9999 0.000134405 20.8524 0 19.4497V5.10155C3.71141e-05 3.69872 1.20511 2.55129 2.67807 2.55122H6.92357L9.37373 0H17.4089ZM13.3913 5.65932C9.69543 5.65932 6.69586 8.5162 6.69565 12.036C6.69565 15.556 9.69531 18.4136 13.3913 18.4136C17.0873 18.4136 20.087 15.556 20.087 12.036C20.0868 8.51622 17.0872 5.65935 13.3913 5.65932Z" fill="var(--fill-0, #00C950)"/>
</g>
</svg>
