<svg xmlns="http://www.w3.org/2000/svg" viewBox="0 0 24 20" width="24" height="20">
  <path d="M1.865,19.891C1.421,20.068 0.999,20.029 0.599,19.774C0.2,19.519 0,19.147 0,18.659V13.697C0,13.386 0.089,13.108 0.266,12.864C0.444,12.62 0.688,12.465 0.999,12.398L10.657,10L0.999,7.602C0.688,7.536 0.444,7.38 0.266,7.136C0.089,6.892 0,6.614 0,6.304V1.342C0,0.853 0.2,0.481 0.599,0.225C0.999,-0.03 1.421,-0.068 1.865,0.109L22.379,8.768C22.934,9.012 23.212,9.423 23.212,10C23.212,10.577 22.934,10.988 22.379,11.232L1.865,19.891Z" fill="black"/>
</svg>
