<svg preserveAspectRatio="none" width="100%" height="100%" overflow="visible" style="display: block;" viewBox="0 0 615.932 526.165" fill="none" xmlns="http://www.w3.org/2000/svg">
<path id="Dark" fill-rule="evenodd" clip-rule="evenodd" d="M0.175055 0L0 11.5948C10.3078 23.1896 41.4064 46.3793 62.0221 61.839C82.6378 77.2988 103.253 85.0287 123.869 88.8936C144.485 92.7585 165.101 92.7585 185.716 73.4338C206.332 54.1092 226.948 15.4598 247.563 11.5948C268.179 7.72988 288.795 38.6494 309.41 46.3793C330.026 54.1091 350.642 38.6494 371.257 46.3793C391.873 54.1091 412.489 85.0287 433.104 100.488C453.72 115.948 474.336 115.948 494.952 123.678C515.567 131.408 536.183 146.868 556.799 131.408C577.414 115.948 598.03 69.5689 608.338 46.3793L615.932 23.1896V526.165H608.338C598.03 526.165 577.414 526.165 556.799 526.165C536.183 526.165 515.567 526.165 494.952 526.165C474.336 526.165 453.72 526.165 433.104 526.165C412.489 526.165 391.873 526.165 371.257 526.165C350.642 526.165 330.026 526.165 309.41 526.165C288.795 526.165 268.179 526.165 247.563 526.165C226.948 526.165 206.332 526.165 185.716 526.165C165.101 526.165 144.485 526.165 123.869 526.165C103.253 526.165 82.6378 526.165 62.0221 526.165C41.4064 526.165 20.7907 526.165 10.4829 526.165H0.175055V0Z" fill="var(--fill-0, #0D542B)"/>
</svg>
