<svg preserveAspectRatio="none" width="100%" height="100%" overflow="visible" style="display: block;" viewBox="0 0 529.012 762.726" fill="none" xmlns="http://www.w3.org/2000/svg">
<path id="Bright" fill-rule="evenodd" clip-rule="evenodd" d="M0.870204 19.2665L13.6547 25.9082C25.9983 32.5499 46.735 19.2665 71.8631 25.9082C97.432 32.5499 125.822 0 150.95 0C176.078 0 210.978 85.6832 236.106 59.1165C261.234 32.5499 276.507 64.1599 301.635 70.8016C326.763 77.4432 352.675 96.9149 377.803 110.198C402.931 123.482 428.059 83.6316 453.628 83.6316C478.756 83.6316 503.884 123.482 516.227 143.407L529.012 163.332V762.726H516.227C503.884 762.726 478.756 762.726 453.628 762.726C428.059 762.726 402.931 762.726 377.803 762.726C352.675 762.726 327.546 762.726 302.418 762.726C277.29 762.726 251.721 762.726 226.593 762.726C201.465 762.726 176.337 762.726 151.209 762.726C126.081 762.726 100.953 762.726 75.3842 762.726C50.2561 762.726 25.1281 762.726 12.7845 762.726H0L0.870204 19.2665Z" fill="var(--fill-0, #00C950)"/>
</svg>
