<svg preserveAspectRatio="none" width="100%" height="100%" overflow="visible" style="display: block;" viewBox="0 0 100 100" fill="none" xmlns="http://www.w3.org/2000/svg">
<g id="Brand Mark">
<path d="M25.0454 0C38.8776 0 50.0907 11.2234 50.0907 25.0681C36.2586 25.0681 25.0454 13.8447 25.0454 0Z" fill="var(--fill-0, white)"/>
<path d="M75.0454 0C61.2132 0 50 11.2234 50 25.0681C63.8322 25.0681 75.0454 13.8447 75.0454 0Z" fill="var(--fill-0, white)"/>
<path d="M25.1361 50.0454C11.3039 50.0454 0.090743 38.822 0.090743 24.9773C13.9229 24.9773 25.1361 36.2007 25.1361 50.0454Z" fill="var(--fill-0, white)"/>
<path d="M50.0907 24.9773C36.2586 24.9773 25.0454 36.2007 25.0454 50.0454C38.8776 50.0454 50.0907 38.822 50.0907 24.9773Z" fill="var(--fill-0, white)"/>
<path d="M50 24.9773C63.8322 24.9773 75.0454 36.2006 75.0454 50.0453C61.2132 50.0453 50 38.822 50 24.9773Z" fill="var(--fill-0, white)"/>
<path d="M74.9546 50.0454C88.7868 50.0454 100 38.822 100 24.9773C86.1678 24.9773 74.9546 36.2007 74.9546 50.0454Z" fill="var(--fill-0, white)"/>
<path d="M25.0454 49.9545C11.2132 49.9545 0 61.1779 0 75.0226C13.8322 75.0226 25.0454 63.7992 25.0454 49.9545Z" fill="var(--fill-0, white)"/>
<path d="M25.0454 49.9545C38.8776 49.9545 50.0907 61.1779 50.0907 75.0226C36.2586 75.0226 25.0454 63.7992 25.0454 49.9545Z" fill="var(--fill-0, white)"/>
<path d="M75.0454 49.9546C61.2132 49.9546 50 61.178 50 75.0227C63.8322 75.0227 75.0454 63.7993 75.0454 49.9546Z" fill="var(--fill-0, white)"/>
<path d="M74.9546 49.9545C88.7868 49.9545 100 61.1779 100 75.0226C86.1678 75.0226 74.9546 63.7992 74.9546 49.9545Z" fill="var(--fill-0, white)"/>
<path d="M50.0907 74.9319C36.2586 74.9319 25.0454 86.1553 25.0454 100C38.8776 100 50.0907 88.7767 50.0907 74.9319Z" fill="var(--fill-0, white)"/>
<path d="M50 74.9318C63.8322 74.9318 75.0454 86.1551 75.0454 99.9999C61.2132 99.9999 50 88.7765 50 74.9318Z" fill="var(--fill-0, white)"/>
</g>
</svg>
