<svg preserveAspectRatio="none" width="100%" height="100%" overflow="visible" style="display: block;" viewBox="0 0 7.08115 12.0542" fill="none" xmlns="http://www.w3.org/2000/svg">
<path id="Vector" d="M4.51356 6.02708L0.2973 1.81083C0.0991 1.61263 0 1.36037 0 1.05406C0 0.747755 0.0991 0.4955 0.2973 0.2973C0.4955 0.0991 0.747755 0 1.05406 0C1.36037 0 1.61263 0.0991 1.81083 0.2973L6.78385 5.27032C6.89196 5.37843 6.96853 5.49555 7.01358 5.62167C7.05862 5.7478 7.08115 5.88294 7.08115 6.02708C7.08115 6.17123 7.05862 6.30637 7.01358 6.43249C6.96853 6.55862 6.89196 6.67574 6.78385 6.78385L1.81083 11.7569C1.61263 11.9551 1.36037 12.0542 1.05406 12.0542C0.747755 12.0542 0.4955 11.9551 0.2973 11.7569C0.0991 11.5587 0 11.3064 0 11.0001C0 10.6938 0.0991 10.4415 0.2973 10.2433L4.51356 6.02708Z" fill="var(--fill-0, #00C950)"/>
</svg>
