<svg preserveAspectRatio="none" width="100%" height="100%" overflow="visible" style="display: block;" viewBox="0 0 18.7688 13.125" fill="none" xmlns="http://www.w3.org/2000/svg">
<path id="Vector" d="M9.38438 10.5C10.4781 10.5 11.4078 10.1172 12.1734 9.35156C12.9391 8.58594 13.3219 7.65625 13.3219 6.5625C13.3219 5.46875 12.9391 4.53906 12.1734 3.77344C11.4078 3.00781 10.4781 2.625 9.38438 2.625C8.29063 2.625 7.36094 3.00781 6.59531 3.77344C5.82969 4.53906 5.44688 5.46875 5.44688 6.5625C5.44688 7.65625 5.82969 8.58594 6.59531 9.35156C7.36094 10.1172 8.29063 10.5 9.38438 10.5ZM9.38438 8.925C8.72813 8.925 8.17031 8.69531 7.71094 8.23594C7.25156 7.77656 7.02188 7.21875 7.02188 6.5625C7.02188 5.90625 7.25156 5.34844 7.71094 4.88906C8.17031 4.42969 8.72813 4.2 9.38438 4.2C10.0406 4.2 10.5984 4.42969 11.0578 4.88906C11.5172 5.34844 11.7469 5.90625 11.7469 6.5625C11.7469 7.21875 11.5172 7.77656 11.0578 8.23594C10.5984 8.69531 10.0406 8.925 9.38438 8.925ZM9.38438 13.125C7.43021 13.125 5.6474 12.6 4.03594 11.55C2.42448 10.5 1.15208 9.11458 0.21875 7.39375C0.145833 7.2625 0.0911458 7.1276 0.0546875 6.98906C0.0182292 6.85052 0 6.70833 0 6.5625C0 6.41667 0.0182292 6.27448 0.0546875 6.13594C0.0911458 5.9974 0.145833 5.8625 0.21875 5.73125C1.15208 4.01042 2.42448 2.625 4.03594 1.575C5.6474 0.525 7.43021 0 9.38438 0C11.3385 0 13.1214 0.525 14.7328 1.575C16.3443 2.625 17.6167 4.01042 18.55 5.73125C18.6229 5.8625 18.6776 5.9974 18.7141 6.13594C18.7505 6.27448 18.7688 6.41667 18.7688 6.5625C18.7688 6.70833 18.7505 6.85052 18.7141 6.98906C18.6776 7.1276 18.6229 7.2625 18.55 7.39375C17.6167 9.11458 16.3443 10.5 14.7328 11.55C13.1214 12.6 11.3385 13.125 9.38438 13.125ZM9.38438 11.375C11.0323 11.375 12.5453 10.9411 13.9234 10.0734C15.3016 9.20573 16.3552 8.03542 17.0844 6.5625C16.3552 5.08958 15.3016 3.91927 13.9234 3.05156C12.5453 2.18385 11.0323 1.75 9.38438 1.75C7.73646 1.75 6.22344 2.18385 4.84531 3.05156C3.46719 3.91927 2.41354 5.08958 1.68438 6.5625C2.41354 8.03542 3.46719 9.20573 4.84531 10.0734C6.22344 10.9411 7.73646 11.375 9.38438 11.375Z" fill="var(--fill-0, #00C950)"/>
</svg>
