<svg preserveAspectRatio="none" width="100%" height="100%" overflow="visible" style="display: block;" viewBox="0 0 18.894 26.6667" fill="none" xmlns="http://www.w3.org/2000/svg">
<g id="Voice">
<path d="M9.44701 16.1949C11.6873 16.1949 13.4822 14.3865 13.4822 12.1462L13.4957 4.04872C13.4957 1.80843 11.6873 0 9.44701 0C7.20672 0 5.39829 1.80843 5.39829 4.04872V12.1462C5.39829 14.3865 7.20672 16.1949 9.44701 16.1949ZM16.5998 12.1462C16.5998 16.1949 13.1718 19.029 9.44701 19.029C5.72219 19.029 2.29427 16.1949 2.29427 12.1462C2.29427 12.1462 2.09936 11.1859 1.12179 11.1859C0.144231 11.1859 0 12.1462 0 12.1462C0 16.7482 3.67084 20.554 8.09744 21.2153V25.6419H10.7966V21.2153C15.2232 20.5675 18.894 16.7617 18.894 12.1462C18.894 12.1462 18.774 11.1859 17.7564 11.1859C16.6506 11.1859 16.5998 12.1462 16.5998 12.1462Z" fill="var(--fill-0, #00C950)"/>
<path d="M13.2051 23.9583C13.953 23.9583 14.5593 24.5646 14.5593 25.3125C14.5593 26.0604 13.953 26.6667 13.2051 26.6667H5.25641C4.50852 26.6667 3.90224 26.0604 3.90224 25.3125C3.90224 24.5646 4.50852 23.9583 5.25641 23.9583H13.2051Z" fill="var(--fill-0, #00C950)"/>
</g>
</svg>
