<svg preserveAspectRatio="none" width="100%" height="100%" overflow="visible" style="display: block;" viewBox="0 0 26.6667 21.9048" fill="none" xmlns="http://www.w3.org/2000/svg">
<g id="Photo">
<path d="M13.3333 7.80804C15.6895 7.80826 17.5995 9.64161 17.5995 11.9036C17.5995 14.1656 15.6895 15.9998 13.3333 16C10.9769 16 9.06622 14.1657 9.06622 11.9036C9.06628 9.64147 10.977 7.80804 13.3333 7.80804Z" fill="var(--fill-0, #00C950)"/>
<path fill-rule="evenodd" clip-rule="evenodd" d="M17.3335 0L19.7731 2.54018H24.0002C25.4667 2.54031 26.6666 3.68275 26.6667 5.07946V19.3655C26.6665 20.7621 25.4667 21.9046 24.0002 21.9048H2.66648C1.19995 21.9047 0.000133824 20.7622 0 19.3655V5.07946C3.69534e-05 3.68271 1.19989 2.54024 2.66648 2.54018H6.8936L9.33315 0H17.3335ZM13.3333 5.63482C9.65346 5.63482 6.66687 8.47933 6.66667 11.9839C6.66667 15.4887 9.65333 18.3339 13.3333 18.3339C17.0133 18.3339 20 15.4887 20 11.9839C19.9998 8.47935 17.0132 5.63485 13.3333 5.63482Z" fill="var(--fill-0, #00C950)"/>
</g>
</svg>
