<svg preserveAspectRatio="none" width="100%" height="100%" overflow="visible" style="display: block;" viewBox="0 0 34 34" fill="none" xmlns="http://www.w3.org/2000/svg">
<g id="Brand Mark">
<path d="M8.51543 0C13.2184 0 17.0309 3.81594 17.0309 8.52315C12.3279 8.52315 8.51543 4.7072 8.51543 0Z" fill="var(--fill-0, #00C950)"/>
<path d="M25.5154 0C20.8125 0 17 3.81594 17 8.52315C21.7029 8.52315 25.5154 4.7072 25.5154 0Z" fill="var(--fill-0, #00C950)"/>
<path d="M8.54628 17.0154C3.84334 17.0154 0.0308526 13.1995 0.0308526 8.49228C4.73379 8.49228 8.54628 12.3082 8.54628 17.0154Z" fill="var(--fill-0, #00C950)"/>
<path d="M17.0309 8.49228C12.3279 8.49228 8.51543 12.3082 8.51543 17.0154C13.2184 17.0154 17.0309 13.1995 17.0309 8.49228Z" fill="var(--fill-0, #00C950)"/>
<path d="M17 8.49227C21.7029 8.49227 25.5154 12.3082 25.5154 17.0154C20.8125 17.0154 17 13.1995 17 8.49227Z" fill="var(--fill-0, #00C950)"/>
<path d="M25.4846 17.0154C30.1875 17.0154 34 13.1995 34 8.49228C29.2971 8.49228 25.4846 12.3082 25.4846 17.0154Z" fill="var(--fill-0, #00C950)"/>
<path d="M8.51543 16.9845C3.81249 16.9845 0 20.8005 0 25.5077C4.70294 25.5077 8.51543 21.6917 8.51543 16.9845Z" fill="var(--fill-0, #00C950)"/>
<path d="M8.51543 16.9845C13.2184 16.9845 17.0309 20.8005 17.0309 25.5077C12.3279 25.5077 8.51543 21.6917 8.51543 16.9845Z" fill="var(--fill-0, #00C950)"/>
<path d="M25.5154 16.9846C20.8125 16.9846 17 20.8005 17 25.5077C21.7029 25.5077 25.5154 21.6918 25.5154 16.9846Z" fill="var(--fill-0, #00C950)"/>
<path d="M25.4846 16.9845C30.1875 16.9845 34 20.8005 34 25.5077C29.2971 25.5077 25.4846 21.6917 25.4846 16.9845Z" fill="var(--fill-0, #00C950)"/>
<path d="M17.0309 25.4769C12.3279 25.4769 8.51543 29.2928 8.51543 34C13.2184 34 17.0309 30.1841 17.0309 25.4769Z" fill="var(--fill-0, #00C950)"/>
<path d="M17 25.4768C21.7029 25.4768 25.5154 29.2927 25.5154 33.9999C20.8125 33.9999 17 30.184 17 25.4768Z" fill="var(--fill-0, #00C950)"/>
</g>
</svg>
