<svg preserveAspectRatio="none" width="100%" height="100%" overflow="visible" style="display: block;" viewBox="0 0 7.72489 13.15" fill="none" xmlns="http://www.w3.org/2000/svg">
<path id="Vector" d="M4.92388 6.575L0.324327 1.97545C0.108109 1.75923 0 1.48404 0 1.14989C0 0.815732 0.108109 0.540546 0.324327 0.324327C0.540546 0.108109 0.815732 0 1.14989 0C1.48404 0 1.75923 0.108109 1.97545 0.324327L7.40056 5.74944C7.5185 5.86738 7.60204 5.99514 7.65118 6.13274C7.70032 6.27033 7.72489 6.41775 7.72489 6.575C7.72489 6.73225 7.70032 6.87967 7.65118 7.01726C7.60204 7.15486 7.5185 7.28262 7.40056 7.40056L1.97545 12.8257C1.75923 13.0419 1.48404 13.15 1.14989 13.15C0.815732 13.15 0.540546 13.0419 0.324327 12.8257C0.108109 12.6095 0 12.3343 0 12.0001C0 11.666 0.108109 11.3908 0.324327 11.1746L4.92388 6.575Z" fill="var(--fill-0, #00C950)"/>
</svg>
