<svg preserveAspectRatio="none" width="100%" height="100%" overflow="visible" style="display: block;" viewBox="0 0 17.1988 16" fill="none" xmlns="http://www.w3.org/2000/svg">
<path id="Vector" d="M3.43976 13.7591L1.4619 15.7369C1.18958 16.0092 0.877856 16.0701 0.526714 15.9197C0.175571 15.7692 0 15.5004 0 15.1135V1.71988C0 1.24691 0.168405 0.842025 0.505215 0.505215C0.842025 0.168405 1.24691 0 1.71988 0H15.4789C15.9519 0 16.3568 0.168405 16.6936 0.505215C17.0304 0.842025 17.1988 1.24691 17.1988 1.71988V12.0392C17.1988 12.5121 17.0304 12.917 16.6936 13.2538C16.3568 13.5906 15.9519 13.7591 15.4789 13.7591H3.43976ZM4.2997 10.3193H9.45935C9.703 10.3193 9.90723 10.2369 10.0721 10.0721C10.2369 9.90723 10.3193 9.703 10.3193 9.45935C10.3193 9.2157 10.2369 9.01146 10.0721 8.84664C9.90723 8.68182 9.703 8.59941 9.45935 8.59941H4.2997C4.05605 8.59941 3.85182 8.68182 3.687 8.84664C3.52217 9.01146 3.43976 9.2157 3.43976 9.45935C3.43976 9.703 3.52217 9.90723 3.687 10.0721C3.85182 10.2369 4.05605 10.3193 4.2997 10.3193ZM4.2997 7.73947H12.8991C13.1428 7.73947 13.347 7.65706 13.5118 7.49223C13.6766 7.32741 13.7591 7.12318 13.7591 6.87953C13.7591 6.63588 13.6766 6.43164 13.5118 6.26682C13.347 6.102 13.1428 6.01959 12.8991 6.01959H4.2997C4.05605 6.01959 3.85182 6.102 3.687 6.26682C3.52217 6.43164 3.43976 6.63588 3.43976 6.87953C3.43976 7.12318 3.52217 7.32741 3.687 7.49223C3.85182 7.65706 4.05605 7.73947 4.2997 7.73947ZM4.2997 5.15964H12.8991C13.1428 5.15964 13.347 5.07723 13.5118 4.91241C13.6766 4.74759 13.7591 4.54335 13.7591 4.2997C13.7591 4.05605 13.6766 3.85182 13.5118 3.687C13.347 3.52217 13.1428 3.43976 12.8991 3.43976H4.2997C4.05605 3.43976 3.85182 3.52217 3.687 3.687C3.52217 3.85182 3.43976 4.05605 3.43976 4.2997C3.43976 4.54335 3.52217 4.74759 3.687 4.91241C3.85182 5.07723 4.05605 5.15964 4.2997 5.15964Z" fill="var(--fill-0, #00C950)"/>
</svg>
