<svg preserveAspectRatio="none" width="100%" height="100%" overflow="visible" style="display: block;" viewBox="0 0 15.5429 17" fill="none" xmlns="http://www.w3.org/2000/svg">
<path id="Vector" d="M0 15.0571V6.31429C0 6.00667 0.0688095 5.71524 0.206429 5.44C0.344048 5.16476 0.534286 4.9381 0.777143 4.76L6.60571 0.388571C6.94571 0.129524 7.33429 0 7.77143 0C8.20857 0 8.59714 0.129524 8.93714 0.388571L14.7657 4.76C15.0086 4.9381 15.1988 5.16476 15.3364 5.44C15.474 5.71524 15.5429 6.00667 15.5429 6.31429V15.0571C15.5429 15.5914 15.3526 16.0488 14.9721 16.4293C14.5917 16.8098 14.1343 17 13.6 17H10.6857C10.4105 17 10.1798 16.9069 9.99357 16.7207C9.80738 16.5345 9.71429 16.3038 9.71429 16.0286V11.1714C9.71429 10.8962 9.62119 10.6655 9.435 10.4793C9.24881 10.2931 9.0181 10.2 8.74286 10.2H6.8C6.52476 10.2 6.29405 10.2931 6.10786 10.4793C5.92167 10.6655 5.82857 10.8962 5.82857 11.1714V16.0286C5.82857 16.3038 5.73548 16.5345 5.54929 16.7207C5.3631 16.9069 5.13238 17 4.85714 17H1.94286C1.40857 17 0.951191 16.8098 0.570714 16.4293C0.190238 16.0488 0 15.5914 0 15.0571Z" fill="var(--fill-0, #00C950)"/>
</svg>
