<svg preserveAspectRatio="none" width="100%" height="100%" overflow="visible" style="display: block;" viewBox="0 0 17.9136 18" fill="none" xmlns="http://www.w3.org/2000/svg">
<path id="Vector" fill-rule="evenodd" clip-rule="evenodd" d="M15.3035 2.61566C13.6198 0.929766 11.3804 0.00085535 8.99443 0C4.07789 0 0.0765538 4.00091 0.0748431 8.91874C0.0739877 10.4909 0.484984 12.0254 1.26549 13.3777L0 18L4.72838 16.7597C6.03107 17.4706 7.49799 17.8447 8.99059 17.8452H8.99443C13.9101 17.8452 17.9119 13.8438 17.9136 8.92601C17.9145 6.5426 16.9877 4.30199 15.3035 2.61609V2.61566ZM8.99443 16.3389H8.99144C7.66135 16.3385 6.35655 15.9809 5.21809 15.3056L4.94735 15.1449L2.14137 15.8809L2.89023 13.145L2.71403 12.8645C1.97201 11.6841 1.57983 10.3198 1.58069 8.91919C1.5824 4.83188 4.908 1.50627 8.99746 1.50627C10.9776 1.50713 12.8388 2.27908 14.2386 3.68058C15.6384 5.08165 16.4086 6.94461 16.4078 8.92516C16.406 13.0129 13.0805 16.3385 8.99443 16.3385V16.3389ZM13.0608 10.7868C12.8379 10.6752 11.7423 10.1363 11.5378 10.0619C11.3334 9.98749 11.185 9.95032 11.0366 10.1735C10.8882 10.3968 10.461 10.8989 10.3309 11.0473C10.2009 11.1961 10.0709 11.2145 9.84806 11.1029C9.62528 10.9912 8.9072 10.756 8.0557 9.99689C7.39325 9.40584 6.94586 8.67626 6.81588 8.45299C6.68586 8.22976 6.8022 8.10915 6.91336 7.99838C7.01343 7.89831 7.13619 7.73794 7.2478 7.60791C7.35946 7.47789 7.39623 7.38469 7.47062 7.23626C7.54507 7.08742 7.50785 6.95745 7.45226 6.84579C7.39663 6.73418 6.95103 5.63717 6.76498 5.19112C6.58405 4.75661 6.40019 4.81563 6.26374 4.80836C6.13372 4.80194 5.98534 4.80066 5.8365 4.80066C5.68767 4.80066 5.44644 4.85626 5.24202 5.07951C5.03761 5.30273 4.46194 5.84203 4.46194 6.93859C4.46194 8.03515 5.26043 9.09539 5.37204 9.24422C5.48366 9.39305 6.94372 11.6439 9.17919 12.6096C9.71082 12.8392 10.1261 12.9765 10.4498 13.0792C10.9836 13.249 11.4694 13.225 11.8534 13.1677C12.2816 13.1036 13.172 12.6284 13.3576 12.1079C13.5432 11.5874 13.5432 11.1409 13.4876 11.0481C13.432 10.9553 13.2832 10.8993 13.0604 10.7877L13.0608 10.7868Z" fill="var(--fill-0, #00C950)"/>
</svg>
