<svg preserveAspectRatio="none" width="100%" height="100%" overflow="visible" style="display: block;" viewBox="0 0 141.202 18" fill="none" xmlns="http://www.w3.org/2000/svg">
<g id="Vector">
<path d="M132.559 8.42029V5.82041H141.19V8.42029H132.559ZM134.714 14.0533V6.87442L134.772 6.60506V2.64669H138.344V13.6669C138.344 14.2993 138.469 14.7365 138.719 14.9785C138.977 15.2206 139.347 15.3416 139.831 15.3416C140.097 15.3416 140.335 15.3182 140.546 15.2713C140.757 15.2245 140.96 15.1698 141.155 15.1074L141.202 17.6018C140.983 17.6955 140.675 17.7814 140.276 17.8595C139.886 17.9375 139.406 17.9766 138.836 17.9766C137.587 17.9766 136.587 17.6604 135.838 17.028C135.088 16.3878 134.714 15.3962 134.714 14.0533Z" fill="var(--fill-0, white)"/>
<path d="M118.423 14.1708C118.423 12.9059 118.939 11.9456 119.969 11.2898C121 10.6262 122.413 10.2944 124.209 10.2944L127.406 10.3061V9.53314C127.406 8.96319 127.226 8.52988 126.867 8.2332C126.508 7.92871 125.911 7.77646 125.075 7.77646C124.263 7.77646 123.666 7.90529 123.284 8.16293C122.901 8.42058 122.71 8.77191 122.71 9.21694V9.40431H119.208V9.19351C119.208 8.05363 119.751 7.14797 120.836 6.47653C121.929 5.80509 123.405 5.46937 125.263 5.46937C127.137 5.46937 128.569 5.80899 129.561 6.48824C130.552 7.16749 131.048 8.21759 131.048 9.63854V14.9788C131.048 15.4629 131.091 15.9235 131.177 16.3607C131.271 16.798 131.395 17.1727 131.552 17.485V17.6607H127.956C127.847 17.4733 127.753 17.2391 127.675 16.958C127.597 16.6769 127.543 16.3803 127.511 16.068C127.23 16.5442 126.699 16.9619 125.919 17.3211C125.146 17.6802 124.17 17.8598 122.991 17.8598C121.601 17.8598 120.492 17.5475 119.665 16.9229C118.837 16.2983 118.423 15.3809 118.423 14.1708ZM122.066 13.9014C122.066 14.4557 122.245 14.8812 122.604 15.1779C122.963 15.4668 123.537 15.6112 124.326 15.6112C125.161 15.6112 125.883 15.3887 126.492 14.9437C127.109 14.4909 127.418 13.9443 127.418 13.3041V12.2735L124.947 12.2618C123.978 12.2618 123.256 12.3985 122.78 12.6717C122.304 12.9372 122.066 13.3471 122.066 13.9014Z" fill="var(--fill-0, white)"/>
<path d="M103.925 17.6604V0H107.579V7.58882C107.977 7.00327 108.527 6.5153 109.23 6.12493C109.933 5.73456 110.807 5.53937 111.853 5.53937C113.173 5.53937 114.239 5.92194 115.051 6.68707C115.863 7.45219 116.269 8.65844 116.269 10.3058V17.6604H112.615V10.6571C112.615 9.81394 112.416 9.20496 112.017 8.83021C111.619 8.45545 111.061 8.26807 110.343 8.26807C109.695 8.26807 109.133 8.43203 108.656 8.75994C108.188 9.08785 107.829 9.53287 107.579 10.095V17.6604H103.925Z" fill="var(--fill-0, white)"/>
<path d="M85.7259 9.53282V8.73646C85.7259 5.89456 86.5027 3.77484 88.0564 2.37731C89.6101 0.979778 91.6322 0.281012 94.1228 0.281012C96.4806 0.281012 98.3349 0.80411 99.6856 1.85031C101.036 2.8965 101.758 4.37991 101.852 6.30054L101.864 6.71043H98.0811L98.0694 6.21856C98.007 5.17237 97.6478 4.37991 96.992 3.8412C96.3362 3.29468 95.3759 3.02142 94.1111 3.02142C92.7604 3.02142 91.679 3.44693 90.8671 4.29794C90.0629 5.14895 89.6608 6.48011 89.6608 8.29144V9.97784C89.6608 11.7892 90.0629 13.1242 90.8671 13.9831C91.6712 14.8341 92.7604 15.2596 94.1345 15.2596C95.4539 15.2596 96.4221 14.9707 97.0388 14.3929C97.6556 13.8152 97.9991 13.0188 98.0694 12.0039L98.0811 11.5706H101.864L101.852 12.039C101.751 13.8581 101.04 15.3064 99.7207 16.3838C98.409 17.4535 96.547 17.9883 94.1345 17.9883C91.6049 17.9883 89.571 17.2895 88.033 15.892C86.4949 14.4866 85.7259 12.3669 85.7259 9.53282Z" fill="var(--fill-0, white)"/>
<path d="M75.8352 17.6607V5.82069H79.3954L79.4422 7.53052H79.5008C79.7975 6.96058 80.2386 6.48042 80.8242 6.09005C81.4175 5.69968 82.0694 5.50449 82.7799 5.50449C83.0375 5.50449 83.2718 5.52791 83.4826 5.57476C83.6934 5.6138 83.8495 5.65674 83.951 5.70358V8.61966C83.7793 8.565 83.5919 8.52597 83.3889 8.50255C83.1937 8.47132 82.9595 8.4557 82.6862 8.4557C81.9992 8.4557 81.3707 8.63918 80.8007 9.00612C80.2386 9.37307 79.817 9.84152 79.5359 10.4115V17.6607H75.8352Z" fill="var(--fill-0, white)"/>
<path d="M60.5638 11.8868V11.5472C60.5638 9.71241 61.1884 8.24071 62.4376 7.13206C63.6946 6.01559 65.3302 5.45736 67.3445 5.45736C69.351 5.45736 70.9125 5.98436 72.029 7.03837C73.1454 8.09237 73.7037 9.53284 73.7037 11.3598V12.5192H62.8592V10.4814H70.1201V10.3292C70.1201 9.64995 69.8937 9.09562 69.4408 8.66622C68.9958 8.229 68.2892 8.01039 67.3211 8.01039C66.2827 8.01039 65.4981 8.31098 64.9672 8.91215C64.4441 9.50551 64.1825 10.3019 64.1825 11.3012V12.0156C64.1825 13.0852 64.4597 13.9206 65.014 14.5218C65.5684 15.1152 66.3998 15.4118 67.5085 15.4118C68.3048 15.4118 68.9724 15.2674 69.5111 14.9785C70.0498 14.6896 70.4831 14.3266 70.811 13.8894L73.4929 15.2947C73.0791 16.0911 72.3686 16.743 71.3615 17.2505C70.3543 17.7502 69.0895 18 67.567 18C65.3888 18 63.6751 17.4496 62.4259 16.3487C61.1845 15.2479 60.5638 13.7606 60.5638 11.8868Z" fill="var(--fill-0, white)"/>
<path d="M38.3189 17.6606V5.82063H41.8322L41.8908 7.4719H41.9376C42.3592 6.86292 42.9214 6.39057 43.624 6.05485C44.3345 5.71132 45.1192 5.53956 45.978 5.53956C46.9383 5.53956 47.7581 5.73474 48.4373 6.12512C49.1244 6.51549 49.6123 7.06591 49.9012 7.77639H49.9246C50.4009 7.06591 51.0372 6.51549 51.8335 6.12512C52.6377 5.73474 53.5199 5.53956 54.4803 5.53956C55.8153 5.53956 56.8966 5.93383 57.7242 6.72238C58.5518 7.50313 58.9656 8.77184 58.9656 10.5285V17.6606H55.3V10.6222C55.3 9.81803 55.1166 9.22467 54.7496 8.8421C54.3905 8.45954 53.8518 8.26826 53.1335 8.26826C52.5011 8.26045 51.9624 8.4205 51.5173 8.74841C51.0801 9.06852 50.7327 9.49012 50.475 10.0132V17.6606H46.7978V10.6456C46.7978 9.82584 46.6143 9.22467 46.2473 8.8421C45.8882 8.45954 45.3495 8.26826 44.6312 8.26826C44.03 8.26826 43.4991 8.42831 43.0385 8.74841C42.5779 9.06852 42.2226 9.49793 41.9728 10.0366V17.6606H38.3189Z" fill="var(--fill-0, white)"/>
<path d="M28.505 17.6606V5.82066H32.0652L32.112 7.53049H32.1706C32.4672 6.96055 32.9084 6.48039 33.4939 6.09002C34.0873 5.69965 34.7392 5.50446 35.4497 5.50446C35.7073 5.50446 35.9415 5.52789 36.1523 5.57473C36.3631 5.61377 36.5193 5.65671 36.6208 5.70355V8.61963C36.449 8.56498 36.2616 8.52594 36.0587 8.50252C35.8635 8.47129 35.6292 8.45567 35.356 8.45567C34.6689 8.45567 34.0404 8.63915 33.4705 9.0061C32.9084 9.37305 32.4868 9.84149 32.2057 10.4114V17.6606H28.505Z" fill="var(--fill-0, white)"/>
<path d="M12.9291 14.1708C12.9291 12.9059 13.4444 11.9456 14.475 11.2898C15.5056 10.6262 16.9187 10.2944 18.7144 10.2944L21.9116 10.3061V9.53314C21.9116 8.96319 21.732 8.52988 21.3729 8.2332C21.0137 7.92871 20.4165 7.77646 19.5811 7.77646C18.7691 7.77646 18.1718 7.90529 17.7893 8.16293C17.4067 8.42058 17.2154 8.77191 17.2154 9.21694V9.40431H13.7138V9.19351C13.7138 8.05363 14.2564 7.14797 15.3416 6.47653C16.4347 5.80509 17.9103 5.46937 19.7684 5.46937C21.6422 5.46937 23.0749 5.80899 24.0664 6.48824C25.058 7.16749 25.5537 8.21759 25.5537 9.63854V14.9788C25.5537 15.4629 25.5967 15.9235 25.6826 16.3607C25.7762 16.798 25.9012 17.1727 26.0573 17.485V17.6607H22.462C22.3527 17.4733 22.259 17.2391 22.1809 16.958C22.1029 16.6769 22.0482 16.3803 22.017 16.068C21.7359 16.5442 21.205 16.9619 20.4243 17.3211C19.6513 17.6802 18.6754 17.8598 17.4965 17.8598C16.1068 17.8598 14.9981 17.5475 14.1705 16.9229C13.3429 16.2983 12.9291 15.3809 12.9291 14.1708ZM16.5713 13.9014C16.5713 14.4557 16.7509 14.8812 17.11 15.1779C17.4692 15.4668 18.043 15.6112 18.8315 15.6112C19.6669 15.6112 20.3891 15.3887 20.9981 14.9437C21.6149 14.4909 21.9233 13.9443 21.9233 13.3041V12.2735L19.4522 12.2618C18.4841 12.2618 17.7619 12.3985 17.2857 12.6717C16.8094 12.9372 16.5713 13.3471 16.5713 13.9014Z" fill="var(--fill-0, white)"/>
<path d="M0 17.6598V0.608391H12.0507V3.4542H3.78269V8.03326H11.0787V10.7385H3.78269V17.6598H0Z" fill="var(--fill-0, white)"/>
</g>
</svg>
