<svg preserveAspectRatio="none" width="100%" height="100%" overflow="visible" style="display: block;" viewBox="0 0 26.6667 20" fill="none" xmlns="http://www.w3.org/2000/svg">
<path id="Type" fill-rule="evenodd" clip-rule="evenodd" d="M24.0002 0C25.4666 0.00013218 26.6665 1.17992 26.6667 2.62235V17.3776C26.6663 18.8199 25.4665 19.9999 24.0002 20H2.66648C1.2001 19.9999 0.00036783 18.8199 0 17.3776V2.62235C0.000164766 1.17988 1.19997 6.76147e-05 2.66648 0H24.0002ZM8.48772 14.4835C7.83043 14.4837 7.29728 15.0341 7.29725 15.713C7.29725 16.3919 7.83041 16.9423 8.48772 16.9425H18.1306C18.7881 16.9425 19.3211 16.392 19.3211 15.713C19.321 15.034 18.788 14.4835 18.1306 14.4835H8.48772ZM5.44085 8.19653C4.38888 8.19653 3.53609 9.0773 3.53609 10.1638C3.53609 11.2503 4.38888 12.131 5.44085 12.131C6.49282 12.131 7.34561 11.2503 7.34561 10.1638C7.34561 9.0773 6.49282 8.19653 5.44085 8.19653ZM10.7031 8.19653C9.65115 8.19653 8.79836 9.0773 8.79836 10.1638C8.79836 11.2503 9.65115 12.131 10.7031 12.131C11.7549 12.1308 12.6079 11.2501 12.6079 10.1638C12.6079 9.07742 11.7549 8.19674 10.7031 8.19653ZM15.9645 8.19653C14.9126 8.19663 14.0597 9.07736 14.0597 10.1638C14.0597 11.2502 14.9126 12.1309 15.9645 12.131C17.0164 12.131 17.8692 11.2503 17.8692 10.1638C17.8692 9.0773 17.0164 8.19653 15.9645 8.19653ZM21.2267 8.19653C20.1748 8.19653 19.322 9.0773 19.322 10.1638C19.322 11.2503 20.1748 12.131 21.2267 12.131C22.2786 12.1309 23.1315 11.2502 23.1315 10.1638C23.1315 9.07736 22.2786 8.19664 21.2267 8.19653ZM5.44085 3.27842C4.38888 3.27842 3.53609 4.15919 3.53609 5.24566C3.53609 6.33214 4.38888 7.21291 5.44085 7.21291C6.49282 7.21291 7.34561 6.33214 7.34561 5.24566C7.34561 4.15919 6.49282 3.27842 5.44085 3.27842ZM10.7031 3.27842C9.65115 3.27842 8.79836 4.15919 8.79836 5.24566C8.79836 6.33214 9.65115 7.21291 10.7031 7.21291C11.7549 7.2127 12.6079 6.33202 12.6079 5.24566C12.6079 4.15931 11.7549 3.27863 10.7031 3.27842ZM15.9645 3.27842C14.9126 3.27852 14.0597 4.15925 14.0597 5.24566C14.0597 6.33208 14.9126 7.21281 15.9645 7.21291C17.0164 7.21291 17.8692 6.33214 17.8692 5.24566C17.8692 4.15919 17.0164 3.27842 15.9645 3.27842ZM21.2267 3.27842C20.1748 3.27842 19.322 4.15919 19.322 5.24566C19.322 6.33214 20.1748 7.21291 21.2267 7.21291C22.2786 7.2128 23.1315 6.33208 23.1315 5.24566C23.1315 4.15925 22.2786 3.27852 21.2267 3.27842Z" fill="var(--fill-0, #00C950)"/>
</svg>
